<?xml version="1.0" encoding="UTF-8"?>
<!-- rosshield 브랜드 favicon — lucide-react ShieldCheck 아이콘과 일관된 디자인입니다.
     Sidebar.tsx에서 동일 ShieldCheck 사용. theme_color(#0a0a0a) 배경 + white stroke. -->
<svg xmlns="http://www.w3.org/2000/svg" viewBox="0 0 24 24" width="32" height="32"
     fill="none" stroke="currentColor" stroke-width="2"
     stroke-linecap="round" stroke-linejoin="round"
     color="#0a0a0a">
  <path d="M20 13c0 5-3.5 7.5-7.66 8.95a1 1 0 0 1-.67-.01C7.5 20.5 4 18 4 13V6a1 1 0 0 1 1-1c2 0 4.5-1.2 6.24-2.72a1.17 1.17 0 0 1 1.52 0C14.51 3.81 17 5 19 5a1 1 0 0 1 1 1z"/>
  <path d="m9 12 2 2 4-4"/>
</svg>
